<?xml version="1.0" ?><svg id="Layer_1_copy" style="enable-background:new 0 0 64 64;" version="1.1" viewBox="0 0 64 64" xml:space="preserve" xmlns="http://www.w3.org/2000/svg" xmlns:xlink="http://www.w3.org/1999/xlink"><path d="M11.83,35.83L12,36l9,9v16h-9v-8L3,41.5v-22c0-0.69,0.28-1.32,0.73-1.77C4.18,17.28,4.81,17,5.5,17  C6.88,17,8,18.12,8,19.5V32L11.83,35.83z" style="fill:#F4E8CE;"/><path d="M52.17,35.83L56,32V19.5c0-1.38,1.12-2.5,2.5-2.5c0.69,0,1.32,0.28,1.77,0.73  C60.72,18.18,61,18.81,61,19.5v22L52,53v8h-9V45l9-9L52.17,35.83z" style="fill:#F4E8CE;"/><path d="M32,28.627c0,0,3.724-7.272,3.724-10.983C35.724,9.712,32,3,32,3s-3.724,6.712-3.724,14.644  C28.276,21.356,32,28.627,32,28.627z" style="fill:#3BC4AA;"/><path d="M32,28.627c0,0,2.483-6.102,6.207-9.153c3.438-2.817,8.69-4.271,8.69-4.271s-1.862,4.881-4.966,7.932  C38.207,26.797,32.941,28.395,32,28.627z" style="fill:#3BC4AA;"/><path d="M32,28.627c0,0,5.586-1.878,9.31-1.878S50,28.58,50,28.58s-4.966,1.831-8.69,1.831  S32,28.627,32,28.627z" style="fill:#3BC4AA;"/><path d="M32,28.627c0,0,0,1.831,2.483,3.661c2.221,1.637,4.966,2.441,4.966,2.441s-0.621-2.441-3.103-4.271  C33.862,28.627,32,28.627,32,28.627z" style="fill:#3BC4AA;"/><path d="M32,28.627c0,0-2.483-6.102-6.207-9.153c-3.438-2.817-8.69-4.271-8.69-4.271s1.862,4.881,4.966,7.932  C25.793,26.797,31.059,28.395,32,28.627z" style="fill:#3BC4AA;"/><path d="M32,28.627c0,0-5.586-1.878-9.31-1.878S14,28.58,14,28.58s4.966,1.831,8.69,1.831  S32,28.627,32,28.627z" style="fill:#3BC4AA;"/><path d="M32,28.627c0,0,0,1.831-2.483,3.661c-2.221,1.637-4.966,2.441-4.966,2.441s0.621-2.441,3.103-4.271  C30.138,28.627,32,28.627,32,28.627z" style="fill:#3BC4AA;"/><path d="M11,53.345V61c0,0.552,0.447,1,1,1h9c0.553,0,1-0.448,1-1V45c0-0.265-0.105-0.52-0.293-0.707  L9,31.586V19.5C9,17.57,7.43,16,5.5,16S2,17.57,2,19.5v22c0,0.224,0.075,0.44,0.213,0.616L11,53.345z M4,19.5  C4,18.673,4.673,18,5.5,18S7,18.673,7,19.5V32c0,0.265,0.105,0.52,0.293,0.707l1.449,1.45C7.159,34.626,6,36.095,6,37.829  c0,1.022,0.398,1.983,1.121,2.707l6.172,6.171l1.414-1.414l-6.172-6.171C8.19,38.776,8,38.317,8,37.829C8,36.82,8.82,36,9.828,36  c0.481,0,0.952,0.195,1.293,0.536L20,45.414V60h-7v-7c0-0.224-0.075-0.44-0.213-0.616L4,41.155V19.5z" style="fill:#373538;"/><path d="M58.5,16c-1.93,0-3.5,1.57-3.5,3.5v12.086L42.293,44.293C42.105,44.48,42,44.735,42,45v16  c0,0.552,0.447,1,1,1h9c0.553,0,1-0.448,1-1v-7.655l8.787-11.229C61.925,41.94,62,41.724,62,41.5v-22C62,17.57,60.43,16,58.5,16z   M60,41.155l-8.787,11.229C51.075,52.56,51,52.776,51,53v7h-7V45.414l8.879-8.879C53.22,36.195,53.69,36,54.172,36  C55.18,36,56,36.82,56,37.829c0,0.488-0.19,0.948-0.535,1.293l-6.172,6.171l1.414,1.414l6.172-6.172  C57.602,39.812,58,38.851,58,37.829c0-1.734-1.159-3.203-2.742-3.672l1.449-1.45C56.895,32.52,57,32.265,57,32V19.5  c0-0.827,0.673-1.5,1.5-1.5s1.5,0.673,1.5,1.5V41.155z" style="fill:#373538;"/><path d="M13.654,29.518c0.209,0.077,5.178,1.892,9.035,1.892c0.851,0,1.786-0.089,2.728-0.225  c-1.396,1.636-1.813,3.21-1.835,3.297c-0.089,0.348,0.016,0.717,0.274,0.966c0.189,0.182,0.438,0.28,0.694,0.28  c0.094,0,0.188-0.013,0.281-0.041c0.119-0.035,2.941-0.873,5.278-2.596c0.334-0.246,0.627-0.494,0.889-0.739V39h2v-6.647  c0.261,0.245,0.555,0.493,0.889,0.739c2.337,1.723,5.159,2.561,5.278,2.596c0.093,0.027,0.188,0.041,0.281,0.041  c0.256,0,0.505-0.098,0.694-0.28c0.259-0.25,0.363-0.618,0.274-0.966c-0.021-0.086-0.439-1.66-1.835-3.297  c0.942,0.135,1.878,0.225,2.728,0.225c3.857,0,8.826-1.815,9.035-1.892C50.739,29.373,51,28.999,51,28.58s-0.261-0.793-0.654-0.938  c-0.209-0.077-5.178-1.892-9.035-1.892c-0.328,0-0.67,0.018-1.018,0.042c0.806-0.573,1.6-1.215,2.34-1.942  c3.222-3.167,5.12-8.082,5.199-8.289c0.134-0.353,0.059-0.75-0.195-1.029c-0.253-0.279-0.644-0.392-1.006-0.291  c-0.223,0.062-5.496,1.544-9.057,4.461c-0.384,0.315-0.751,0.664-1.107,1.028c0.158-0.75,0.259-1.462,0.259-2.085  c0-8.098-3.693-14.846-3.851-15.129c-0.352-0.635-1.396-0.635-1.748,0c-0.157,0.283-3.851,7.032-3.851,15.129  c0,0.623,0.101,1.335,0.259,2.085c-0.356-0.364-0.723-0.713-1.107-1.028c-3.561-2.917-8.834-4.399-9.057-4.461  c-0.362-0.1-0.753,0.012-1.006,0.291c-0.254,0.279-0.329,0.677-0.195,1.029c0.079,0.208,1.978,5.122,5.199,8.289  c0.74,0.727,1.534,1.369,2.34,1.943c-0.348-0.025-0.691-0.042-1.019-0.042c-3.857,0-8.826,1.815-9.035,1.892  C13.261,27.786,13,28.161,13,28.58S13.261,29.373,13.654,29.518z M28.924,31.483c-0.728,0.537-1.524,0.98-2.25,1.329  c0.395-0.516,0.909-1.059,1.575-1.55c0.6-0.443,1.157-0.765,1.65-1.001c0.136-0.035,0.269-0.07,0.396-0.104  C29.989,30.564,29.556,31.017,28.924,31.483z M35.751,31.262c0.666,0.491,1.182,1.035,1.575,1.55  c-0.726-0.349-1.522-0.792-2.25-1.329c-0.632-0.466-1.065-0.919-1.371-1.325c0.127,0.034,0.26,0.068,0.396,0.103  C34.594,30.497,35.151,30.82,35.751,31.262z M46.6,28.58c-1.612,0.423-3.6,0.83-5.289,0.83s-3.817-0.395-5.58-0.809  c1.763-0.436,3.892-0.853,5.58-0.853C42.997,27.749,44.986,28.156,46.6,28.58z M38.841,20.248c1.899-1.556,4.428-2.689,6.197-3.361  c-0.812,1.621-2.127,3.882-3.809,5.536c-2.247,2.208-5.208,3.693-7.319,4.521c0.022-0.049,0.045-0.101,0.068-0.151  C35.005,24.819,36.72,21.985,38.841,20.248z M29.275,17.644c0-5.162,1.659-9.842,2.725-12.314c1.065,2.473,2.725,7.152,2.725,12.314  c0,2.073-1.384,5.662-2.525,8.223c-0.071,0.136-0.135,0.263-0.199,0.39c-0.065-0.128-0.13-0.256-0.201-0.393  C30.658,23.305,29.275,19.719,29.275,17.644z M18.962,16.887c1.77,0.672,4.298,1.805,6.197,3.361  c2.119,1.736,3.837,4.577,4.865,6.551c0.021,0.047,0.044,0.098,0.065,0.144c-2.112-0.827-5.073-2.312-7.319-4.521  C21.089,20.77,19.774,18.508,18.962,16.887z M22.689,27.749c1.688,0,3.817,0.417,5.58,0.853c-1.763,0.414-3.891,0.809-5.58,0.809  c-1.687,0-3.676-0.407-5.289-0.831C19.013,28.156,21,27.749,22.689,27.749z" style="fill:#373538;"/></svg>