<?xml version="1.0" ?><svg enable-background="new 0 0 512 512" id="Layer_1" version="1.1" viewBox="0 0 512 512" xml:space="preserve" xmlns="http://www.w3.org/2000/svg" xmlns:xlink="http://www.w3.org/1999/xlink"><g><path d="M393.062,422.339c-10.051,6.028-18.096,16.086-18.096,16.086c-4.016-7.54,1.001-12.063,15.578-33.173   c14.577-21.11,2.01-36.06-8.923-49.632c-6.648-8.252-11.683-17.213-11.683-17.213s12.063,31.161-1.509,50.761   c-12.461,18.001-38.194,20.608-38.194,20.608s7.538-3.518,19.097-19.599c11.562-16.085-5.024-38.702-5.024-38.702   c0.498,36.686-28.144,43.222-28.144,43.222c8.543-16.083,2.508-23.367-7.54-48.248c-8.906-22.065-2.015-35.684-2.015-35.684   c-8.545,8.041-16.587,15.077-9.043,48.251c7.538,33.166-15.334,28.646-15.334,28.646c12.063-32.169-28.396-63.824-28.396-63.824   c20.353,48.501-4.777,66.34-4.777,66.34c0-22.365-9.299-22.115-23.868-38.197c-10.867-11.988-15.076-29.151-15.076-29.151   s-16.088,13.822-3.017,35.431c13.068,21.61,15.62,31.658,7.538,42.973c-1.884,2.639-13.905,2.839-23.749-14.324   c-16.205-28.272-36.937-19.976-36.937-19.976s16.461,15.702,13.946,40.332c-2.519,24.623-20.353,36.185-20.353,36.185   c1.505-21.11-4.272-53.273-32.418-73.881c-28.149-20.604-26.137-61.817-22.619-69.358c3.519-7.538,8.041-20.602,8.041-20.602   c4.016,23.623,28.644,26.13,28.644,26.13c-23.623-16.083-11.053-46.241-2.504-53.267c8.543-7.036,16.584-18.095,16.584-18.095   s-4.526,18.593-0.507,36.187c4.015,17.592,25.132,16.587,25.132,16.587c-9.046-17.09-14.577-30.662-3.018-56.794   c4.614-10.421,7.543-31.165,7.543-31.165s9.043,10.555,8.545,28.647c-0.5,18.095,16.583,18.6,16.583,18.6   c-7.03-3.012-9.052-17.592-0.002-39.202c9.321-22.262-8.042-48.752-8.042-48.752c16.086,6.538,27.639,27.139,27.639,27.139   s5.031-2.007-10.546-44.227c-15.579-42.214,29.649-61.817,29.649-61.817s-6.532,14.071-7.544,28.146   c-0.996,14.033,15.076,37.189,15.076,37.189c8.545-11.564,10.058-30.659,6.036-56.289c-10.236-65.226,42.22-78.903,42.22-78.903   s-37.198,28.143-11.563,79.406c25.633,51.263,15.583,67.348,15.583,67.348s0.503-6.536,17.595-23.126   c17.092-16.584,7.537-46.74,7.537-46.74c25.132,29.151,13.063,57.799,3.516,86.95c-9.547,29.151,7.541,53.27,7.541,53.27   c-6.034-14.573,5.528-30.153,15.573-39.196c10.051-9.049,15.082-31.667,15.082-31.667c8.038,20.605-2.51,34.682-9.554,53.282   c-7.033,18.597,5.533,53.267,5.533,53.267s-4.522-15.076,8.551-21.106c13.066-6.032,15.075-17.085,15.075-17.085   c4.022,13.066-0.007,16.079-4.031,34.673c-4.02,18.606,9.554,39.704,9.554,39.704c-3.519-18.594,8.044-29.648,20.608-43.216   c12.565-13.572,14.577-35.184,14.577-35.184c10.556,20.599,6.682,27.167-6.536,57.291c-12.568,28.651,4.525,59.812,4.525,59.812   c-4.525-19.599,12.568-32.675,12.568-32.675s-6.539,8.047,8.041,34.682c14.577,26.638,4.022,57.297-16.087,73.381   c-20.103,16.084-31.662,35.675-31.662,43.722C394.059,456.516,387.532,443.449,393.062,422.339z" fill="#FBB040"/><radialGradient cx="-2813.3596" cy="-539.4349" gradientTransform="matrix(-3.7037 0 0 3.7037 -10131.3027 2440.7361)" gradientUnits="userSpaceOnUse" id="SVGID_1_" r="115.603"><stop offset="0" style="stop-color:#FFCA1D"/><stop offset="0.5538" style="stop-color:#F68827"/><stop offset="1" style="stop-color:#EF3F34"/></radialGradient><path d="M182.054,257.636c0.1-0.26,0.166-0.398,0.166-0.398S182.099,257.532,182.054,257.636z" fill="url(#SVGID_1_)"/><path d="M393.062,422.339c-10.051,6.028-18.096,16.086-18.096,16.086c-4.016-7.54,1.001-12.063,15.578-33.173   c14.577-21.11,2.01-36.06-8.923-49.632c-6.648-8.252-11.683-17.213-11.683-17.213s12.063,31.161-1.509,50.761   c-12.461,18.001-38.194,20.608-38.194,20.608s7.538-3.518,19.097-19.599c11.562-16.085-5.024-38.702-5.024-38.702   c0.498,36.686-28.144,43.222-28.144,43.222c8.543-16.083,2.508-23.367-7.54-48.248c-8.906-22.065-2.015-35.684-2.015-35.684   c-8.545,8.041-16.587,15.077-9.043,48.251c7.538,33.166-15.334,28.646-15.334,28.646c12.063-32.169-28.396-63.824-28.396-63.824   c20.353,48.501-4.777,66.34-4.777,66.34c0-22.365-9.299-22.115-23.868-38.197c-10.867-11.988-15.076-29.151-15.076-29.151   s-16.088,13.822-3.017,35.431c13.068,21.61,15.62,31.658,7.538,42.973c-1.884,2.639-13.905,2.839-23.749-14.324   c-16.205-28.272-36.937-19.976-36.937-19.976s16.461,15.702,13.946,40.332c-2.519,24.623-20.353,36.185-20.353,36.185   c10.928-29.78-21.867-76.517-20.359-102.902c1.508-26.385,22.873-41.336,22.873-41.336c-5.907,16.461,6.151,25.88,6.151,25.88   s18.071-9.005,16.712-33.924c-1.505-27.643,8.239-31.467,9.134-33.531c-3.926,9.917,3.444,16.974,5.44,20.965   c5.656,11.306,6.79,19.729,6.79,19.729s5.274-14.702,3.39-28.278c-1.885-13.563,13.193-45.979,13.193-45.979   c-0.752,15.076,7.162,23.746,7.162,23.746s5.652-9.428,5.652-35.813c0-26.382,15.833-38.07,15.833-38.07   c-3.012,20.358,10.803,44.861,10.803,44.861s-1.632-14.952,9.55-36.688c7.929-15.409,9.047-47.244,9.047-47.244   s17.21,23.998,15.079,52.264c-1.566,20.763,10.554,39.713,10.554,39.713c-3.017-35.688,13.063-52.274,13.063-52.274   s-5.901,23.117,1.261,51.763c7.162,28.651-3.768,54.275-3.768,54.275s5.651-11.306,17.337-20.349   c11.686-9.046,16.589-26.385,16.589-26.385s6.784,21.859-1.133,42.593c-7.917,20.734,1.133,51.639,1.133,51.639   c9.422-3.391,16.96-6.407,13.946-21.486c-3.018-15.076,11.309-19.976,11.309-19.976c-1.887,24.502,26.761,49.379,26.761,49.379   c-1.511-15.079,9.046-29.025,9.046-29.025c0.376,20.355,8.667,25.633,20.733,48.248c12.06,22.618,8.671,31.287-9.427,55.413   c-18.09,24.122-17.338,45.858-17.338,45.858S387.532,443.449,393.062,422.339z" fill="#F7941D"/></g><path d="M438.328,481.587c0-15.467-73.831-28.005-164.906-28.005  c-91.073,0-164.904,12.537-164.904,28.005c0,5.067,7.966,9.816,21.827,13.916c-4.473,3.4,70.68,17.475,163.405,13.869  C386.476,505.766,438.328,495.885,438.328,481.587z" fill="#3E3E3E" opacity="0.32"/><g opacity="0.5"><ellipse cx="214.742" cy="213.893" fill="#0D6C3F" opacity="0.3" rx="12.54" ry="9.53" transform="matrix(0.379 -0.9254 0.9254 0.379 -64.5826 331.5461)"/><ellipse cx="258.871" cy="226.051" fill="#0D6C3F" opacity="0.3" rx="9.344" ry="7.099" transform="matrix(0.3788 -0.9255 0.9255 0.3788 -48.3946 380.0017)"/><ellipse cx="313.578" cy="203.359" fill="#0D6C3F" opacity="0.3" rx="12.2" ry="10.466" transform="matrix(0.4096 -0.9123 0.9123 0.4096 -0.373 406.1411)"/><circle cx="351.423" cy="203.359" fill="#0D6C3F" opacity="0.3" r="10.534"/></g><g><g><path d="M269.789,417.746c-6.386,0-12.85-5.174-12.85-11.563V297.276c0-6.382,6.464-11.55,12.85-11.55    c6.371,0,12.833,5.168,12.833,11.55v108.906C282.621,412.572,276.16,417.746,269.789,417.746z" fill="#46883F"/></g></g><path d="M229.289,161.239c0-71.688,41.262-129.787,41.262-129.787s41.25,58.099,41.25,129.787  c0,71.668-41.25,129.78-41.25,129.78S229.289,232.907,229.289,161.239z" fill="#4F9D45"/><path d="M270.575,54.688c10.142,62.003,10.183,91.893-0.057,153.88C260.318,146.562,260.4,116.684,270.575,54.688z" fill="#46883F"/><g><g><path d="M167.781,251.96C113.367,205.305,96.11,136.172,96.11,136.172s70.965,6.496,125.379,53.157    c54.411,46.652,71.668,115.788,71.668,115.788S222.192,298.621,167.781,251.96z" fill="#4F9D45"/><path d="M113.711,151.338c53.666,32.655,105.303,76.896,145.694,125.018    C205.704,243.741,154.142,199.42,113.711,151.338z" fill="#46883F"/></g><g><path d="M373.313,251.96c54.411-46.655,71.66-115.788,71.66-115.788s-70.958,6.496-125.378,53.157    c-54.396,46.652-71.66,115.788-71.66,115.788S318.9,298.621,373.313,251.96z" fill="#4F9D45"/><path d="M427.381,151.338c-40.432,48.082-91.995,92.403-145.694,125.018    C322.076,228.234,373.714,183.994,427.381,151.338z" fill="#46883F"/></g></g><g><g><path d="M352.32,316.774c43.3,37.118,57.02,92.133,57.02,92.133s-56.471-5.175-99.764-42.297    c-43.29-37.121-57.019-92.143-57.019-92.143S309.017,279.643,352.32,316.774z" fill="#4F9D45"/><path d="M395.335,396.836c-43.294-24.255-60.09-39.421-90.588-78.576    C348.088,342.465,364.793,357.715,395.335,396.836z" fill="#46883F"/></g><g><path d="M188.782,316.774c-43.302,37.118-57.029,92.133-57.029,92.133s56.459-5.175,99.752-42.297    c43.3-37.121,57.035-92.143,57.035-92.143S232.074,279.643,188.782,316.774z" fill="#4F9D45"/><path d="M145.757,396.836c30.543-39.121,41.092-47.957,84.426-72.153    C199.684,363.833,189.059,372.581,145.757,396.836z" fill="#46883F"/></g></g><g><path d="M327.533,338.042c-14.833,11.529-35.888,20.199-63.53,20.29c-38.835,0.122-60.238-11.888-70.298-26.64   c-14.26-20.896-5.735-47.3,8.252-52.468c2.045-0.758,3.957-1.343,5.772-1.775c19.367-4.635,27.182,7.817,56.274,12.239   c0,0,46.005,7.845,67.815-5.005c1.53-0.898,2.981-1.647,4.358-2.254C362.785,270.692,361.311,311.783,327.533,338.042z" fill="#8F3D7C"/><path d="M336.177,282.429c-0.391,3.95-1.342,8.706-3.535,12.408c-4.567,7.71-61.179,5.638-65.232,5.356   c-4.059-0.273-41.35-2.708-51.228-5.356c-9.778-2.623-8.477-17.091-8.452-17.388c19.367-4.635,27.182,7.817,56.274,12.239   c0,0,46.005,7.845,67.815-5.005C333.348,283.785,334.8,283.036,336.177,282.429z" fill="#FFFFFF"/><path d="M327.533,338.042c-14.833,11.529-35.888,20.199-63.53,20.29c-38.835,0.122-60.238-11.888-70.298-26.64   C193.705,331.692,257.824,293.954,327.533,338.042z" fill="#BB4E9D"/></g><ellipse cx="311.818" cy="226.647" fill="#FFFFFF" rx="48.304" ry="48.298"/><ellipse cx="229.443" cy="226.647" fill="#FFFFFF" rx="48.303" ry="48.298"/><polygon fill="#3F2945" points="350.934,181.556 281.954,210.319 273.079,183.125 345.278,164.187 "/><polygon fill="#3F2945" points="190.701,179.444 259.682,208.206 268.559,181.014 196.359,162.075 "/><ellipse cx="326.808" cy="230.151" fill="#3F2945" rx="6.629" ry="6.632"/><circle cx="218.029" cy="230.151" fill="#3F2945" r="6.631"/></svg>