<?xml version="1.0" ?><svg id="Layer_1" style="enable-background:new 0 0 256 256;" version="1.1" viewBox="0 0 256 256" xml:space="preserve" xmlns="http://www.w3.org/2000/svg" xmlns:xlink="http://www.w3.org/1999/xlink"><style type="text/css">
	.st0{fill:#60BAE2;}
	.st1{fill:#FFCD29;}
	.st2{fill:#6DCC6D;}
	.st3{fill:#F45D64;}
	.st4{fill:#FCD770;}
	.st5{fill:#231F20;}
</style><g id="Layer_23"><circle class="st0" cx="178.2" cy="50.2" r="9.9"/><circle class="st0" cx="49.9" cy="78.1" r="9.9"/><circle class="st0" cx="205.7" cy="178.4" r="9.9"/><circle class="st0" cx="77.8" cy="206.6" r="9.9"/><circle class="st1" cx="128" cy="128.3" r="50.2"/><path class="st2" d="M162.9,116c0.3-0.5,0.2-1.1-0.2-1.4c-0.3-0.2-0.7-0.3-1.1-0.1c-6.2,3.8-19.1,7.6-28.9,21.7   c3.5-8.8,3.8-18.5,0.9-27.5L129,94.4c-0.2-0.5-0.8-0.8-1.3-0.7c-0.3,0.1-0.6,0.3-0.7,0.7l-4.6,14.3c-2.9,9-2.6,18.7,0.9,27.5   c-9.8-14.1-22.7-17.8-28.9-21.7c-0.5-0.3-1.1-0.1-1.4,0.4c-0.2,0.3-0.2,0.8,0.1,1.1c5.2,6.3,9.8,16.3,23,23.9   c-9.3-1.6-15.3,1.3-21.4,2.4c-0.6,0.1-0.9,0.7-0.8,1.2c0.1,0.4,0.3,0.6,0.7,0.7c5.8,1.5,11.9,5,21.8,3.9c-3.5,2.6-4.7,5.1-7.4,8.6   c-0.3,0.5-0.2,1.1,0.2,1.4c0.3,0.2,0.6,0.2,0.9,0.2c3.2-1.3,9.7-1.5,14.7-7.9c0.2-0.3,0.7-0.4,1-0.1c0.2,0.2,0.3,0.4,0.3,0.7   l-1.9,10.5c-0.1,0.6,0.3,1.1,0.9,1.2c0.1,0,0.1,0,0.2,0h5.4c0.6,0,1.1-0.5,1.1-1.1c0-0.1,0-0.1,0-0.2l-1.9-10.5   c-0.1-0.4,0.2-0.7,0.6-0.8c0.3,0,0.5,0.1,0.7,0.3c5,6.4,11.6,6.6,14.7,7.9c0.5,0.2,1.1-0.2,1.3-0.7c0.1-0.3,0-0.6-0.2-0.9   c-2.7-3.5-3.9-6.1-7.4-8.6c9.9,1.1,15.7-2.4,21.8-3.9c0.5-0.2,0.8-0.7,0.7-1.3c-0.1-0.3-0.4-0.6-0.7-0.7c-6.2-1.1-12-4-21.4-2.4   C153.1,132.3,157.7,122.2,162.9,116z"/><path class="st3" d="M203.3,9.3h-1.8V7.5c0-1.4-1.1-2.5-2.5-2.5s-2.5,1.1-2.5,2.5v1.8h-1.8c-1.4,0-2.5,1.1-2.5,2.5s1.1,2.5,2.5,2.5   h1.8v1.8c0,1.4,1.1,2.5,2.5,2.5s2.5-1.1,2.5-2.5v-1.8h1.8c1.4,0,2.5-1.1,2.5-2.5S204.7,9.3,203.3,9.3L203.3,9.3z"/><path class="st2" d="M59.7,247.5c-4.1-0.8-7.2-4-8-8c0-0.1-0.1-0.2-0.2-0.2c-0.1,0-0.1,0.1-0.2,0.2c-0.8,4.1-4,7.2-8,8   c-0.1,0-0.2,0.1-0.2,0.2c0,0.1,0.1,0.1,0.2,0.2c4.1,0.8,7.2,4,8,8c0,0.1,0.1,0.2,0.2,0.2c0.1,0,0.1-0.1,0.2-0.2c0.8-4.1,4-7.2,8-8   c0.1,0,0.2-0.1,0.2-0.2C59.8,247.5,59.8,247.5,59.7,247.5z"/><path class="st4" d="M173.2,2c0-0.2-0.1-0.3-0.1-0.5c-0.1-0.1-0.1-0.3-0.2-0.4c-0.1-0.1-0.2-0.3-0.3-0.4c-1-0.9-2.5-0.9-3.5,0   c-0.1,0.1-0.2,0.2-0.3,0.4c-0.1,0.1-0.2,0.3-0.2,0.4c-0.1,0.2-0.1,0.3-0.1,0.5c0,0.2-0.1,0.3-0.1,0.5c0,0.2,0,0.3,0.1,0.5   c0,0.2,0.1,0.3,0.1,0.5c0.1,0.2,0.1,0.3,0.2,0.4c0.1,0.1,0.2,0.3,0.3,0.4c1,1,2.5,1,3.5,0c0,0,0,0,0,0c0.1-0.1,0.2-0.2,0.3-0.4   c0.1-0.1,0.2-0.3,0.2-0.4c0.1-0.1,0.1-0.3,0.1-0.5c0-0.2,0-0.3,0.1-0.5C173.3,2.3,173.3,2.1,173.2,2z"/><path class="st0" d="M80.3,241.3c0-0.2-0.1-0.3-0.1-0.5c-0.1-0.1-0.1-0.3-0.2-0.4c-0.1-0.1-0.2-0.3-0.3-0.4c-1-0.9-2.5-0.9-3.5,0   c-0.1,0.1-0.2,0.2-0.3,0.4c-0.2,0.3-0.3,0.6-0.4,0.9c-0.1,0.3-0.1,0.7,0,1c0,0.2,0.1,0.3,0.1,0.5c0.1,0.2,0.1,0.3,0.2,0.4   c0.1,0.1,0.2,0.3,0.3,0.4c1,1,2.5,1,3.5,0c0,0,0,0,0,0c0.1-0.1,0.2-0.2,0.3-0.4c0.1-0.1,0.2-0.3,0.2-0.4c0.1-0.1,0.1-0.3,0.1-0.5   C80.3,241.9,80.3,241.6,80.3,241.3L80.3,241.3z"/><path class="st5" d="M130.7,165.3h-5.4c-2,0-3.6-1.6-3.6-3.6c0-0.2,0-0.4,0.1-0.6l0.9-5.1c-2.8,1.9-6,3.3-9.3,4   c-0.8,0.2-1.6,0.4-2.4,0.7c-0.1,0-0.1,0.1-0.2,0.1c-1.9,0.5-3.8-0.5-4.4-2.4c-0.3-1.1-0.1-2.2,0.5-3.1c0.8-1,1.4-1.9,2-2.7   c0.4-0.6,0.9-1.2,1.3-1.8c-4.1-0.4-8.1-1.3-12-2.8c-1.5-0.5-2.9-1-4.3-1.3c0,0-0.1,0-0.1,0c-1.9-0.6-2.9-2.6-2.3-4.4   c0.4-1.2,1.3-2.1,2.6-2.4c0,0,0.1,0,0.1,0c1.5-0.3,2.9-0.6,4.5-1c2.9-0.8,5.8-1.4,8.8-1.7c-6-4.9-9.7-10.1-12.8-14.5   c-1.3-1.8-2.5-3.5-3.7-4.9c0,0-0.1-0.1-0.1-0.1c-1.2-1.6-0.8-3.8,0.8-4.9c1.1-0.8,2.5-0.9,3.7-0.3c0.1,0,0.1,0.1,0.2,0.1   c1.3,0.8,3,1.6,4.9,2.6c4.8,2.4,11.4,5.6,17.6,11.5c-0.8-6.2-0.2-12.6,1.7-18.6l4.6-14.3c0.6-1.9,2.6-2.9,4.4-2.3   c1.1,0.3,1.9,1.2,2.3,2.3l4.6,14.3c1.9,6,2.5,12.3,1.7,18.6c6.3-5.9,12.9-9.2,17.7-11.6c1.9-1,3.6-1.8,4.9-2.6   c0.1,0,0.1-0.1,0.2-0.1c1.7-0.9,3.9-0.2,4.8,1.5c0.6,1.2,0.5,2.6-0.3,3.7c0,0-0.1,0.1-0.1,0.1c-1.2,1.4-2.3,3.1-3.6,4.9   c-3.1,4.5-6.9,9.7-12.8,14.6c3,0.3,5.9,0.9,8.7,1.7c1.6,0.4,3.1,0.8,4.5,1.1c0,0,0.1,0,0.1,0c1.9,0.4,3.1,2.3,2.6,4.2   c-0.3,1.2-1.2,2.2-2.4,2.6c0,0-0.1,0-0.1,0c-1.4,0.4-2.9,0.9-4.4,1.4c-3.8,1.4-7.8,2.4-11.8,2.8c0.4,0.6,0.9,1.2,1.3,1.8   c0.6,0.8,1.2,1.7,1.9,2.6c1.2,1.5,0.9,3.8-0.6,4.9c-0.9,0.7-2.1,0.9-3.1,0.6c-0.1,0-0.1,0-0.2-0.1c-0.8-0.3-1.5-0.5-2.3-0.7   c-3.3-0.7-6.5-2.1-9.3-4l0.9,5.1c0.3,1.9-1,3.8-2.9,4.1C131.1,165.3,130.9,165.3,130.7,165.3L130.7,165.3z M127,160.3h2l-1-5.5   L127,160.3z M130.5,147.7c1,0,1.9,0.5,2.5,1.2c2.4,2.9,5.6,5,9.3,5.9c-1.2-1.8-2.6-3.3-4.3-4.6c-1.1-0.8-1.4-2.4-0.6-3.5   c0.5-0.7,1.4-1.1,2.3-1c6.6,0.7,11.2-0.7,15.6-2.2c-4.4-1.1-8.9-2.2-15.1-1.1c-1.4,0.2-2.7-0.7-2.9-2c-0.2-1,0.3-2.1,1.2-2.6   c9.6-5.5,14.5-12.4,18.4-18c-6.6,3.3-15.3,7.8-22.3,17.9c-0.8,1.1-2.3,1.4-3.5,0.6c-1-0.7-1.3-1.9-0.9-3c3.3-8.2,3.6-17.4,0.9-25.8   l-3.2-10l-3.2,10c-2.7,8.4-2.4,17.6,0.9,25.8c0.5,1.3-0.1,2.7-1.4,3.2c-1.1,0.4-2.3,0.1-3-0.9c-7-10.1-15.8-14.6-22.3-17.9   c4.1,5.9,8.8,12.5,18.4,18c1.2,0.7,1.6,2.2,0.9,3.4c-0.5,0.9-1.6,1.4-2.6,1.2c-6.2-1.1-10.8,0-15.1,1.1c4.4,1.5,9.1,2.9,15.6,2.2   c1.4-0.2,2.6,0.8,2.8,2.2c0.1,0.9-0.3,1.8-1,2.3c-1.7,1.3-3.2,2.8-4.3,4.6c3.7-0.8,7-2.9,9.3-5.9c1.1-1.4,3.1-1.6,4.5-0.5   c0.2,0.2,0.4,0.4,0.6,0.6C128.6,148.2,129.5,147.7,130.5,147.7L130.5,147.7z M162.9,116L162.9,116z"/><path class="st5" d="M186.3,230.3c-9.7-0.2-19.3-1.9-28.5-5c-25.7-8.3-53-26-76.9-49.9s-41.7-51.2-49.9-76.9   c-8.5-26.2-6.1-47.7,6.8-60.6S72,22.7,98.2,31.2c25.7,8.3,53,26,76.9,49.9s41.7,51.2,49.9,76.9c8.5,26.2,6.1,47.7-6.8,60.6   C210.5,226.4,199.6,230.3,186.3,230.3z M69.7,31.2c-12,0-21.7,3.4-28.5,10.3c-11.4,11.4-13.4,31.1-5.5,55.5   c8,24.9,25.3,51.5,48.7,74.9s50,40.7,74.9,48.7c24.4,7.9,44.1,5.9,55.5-5.5s13.4-31.1,5.5-55.5c-8-24.9-25.3-51.5-48.7-74.9   s-50-40.7-74.9-48.7C88,33,78.9,31.4,69.7,31.2z"/><path class="st5" d="M69.7,230.3c-13.3,0-24.3-3.9-32.1-11.7c-12.8-12.8-15.2-34.3-6.8-60.6c8.3-25.7,26-53,49.9-76.9l1.8,1.8   l-1.8-1.8c23.9-23.9,51.2-41.7,76.9-49.9c26.2-8.5,47.7-6.1,60.6,6.8s15.2,34.3,6.8,60.6c-8.3,25.7-26,53-49.9,76.9   s-51.2,41.7-76.9,49.9C89,228.5,79.4,230.1,69.7,230.3z M186.3,31.2c-9.2,0.2-18.3,1.8-26.9,4.7c-24.9,8-51.5,25.3-74.9,48.7   s-40.7,50-48.7,74.9c-7.9,24.4-5.9,44.1,5.5,55.5s31.1,13.4,55.5,5.5c24.9-8,51.5-25.3,74.9-48.7s40.7-50,48.7-74.9   c7.9-24.4,5.9-44.1-5.5-55.5C208,34.6,198.2,31.2,186.3,31.2z"/><path class="st5" d="M128,180.9c-29.1,0-52.7-23.6-52.7-52.7S98.9,75.6,128,75.6c29.1,0,52.7,23.6,52.7,52.7   C180.6,157.3,157.1,180.9,128,180.9z M128,80.6c-26.3,0-47.7,21.3-47.7,47.7s21.3,47.7,47.7,47.7c26.3,0,47.7-21.3,47.7-47.7   C175.6,101.9,154.3,80.6,128,80.6z"/><path class="st5" d="M178.2,62.6c-6.8,0-12.4-5.5-12.4-12.4c0-6.8,5.5-12.4,12.4-12.4s12.4,5.5,12.4,12.4c0,0,0,0,0,0   C190.6,57,185,62.6,178.2,62.6z M178.2,42.8c-4.1,0-7.4,3.3-7.4,7.4c0,4.1,3.3,7.4,7.4,7.4c4.1,0,7.4-3.3,7.4-7.4   C185.6,46.1,182.3,42.8,178.2,42.8z"/><path class="st5" d="M49.9,90.5c-6.8,0-12.4-5.5-12.4-12.4c0-6.8,5.5-12.4,12.4-12.4c6.8,0,12.4,5.5,12.4,12.4l0,0   C62.3,84.9,56.8,90.5,49.9,90.5z M49.9,70.7c-4.1,0-7.4,3.3-7.4,7.4c0,4.1,3.3,7.4,7.4,7.4s7.4-3.3,7.4-7.4l0,0   C57.3,74,54,70.7,49.9,70.7z"/><path class="st5" d="M205.7,190.8c-6.8,0-12.4-5.5-12.4-12.4s5.5-12.4,12.4-12.4c6.8,0,12.4,5.5,12.4,12.4   C218.1,185.3,212.5,190.8,205.7,190.8z M205.7,171c-4.1,0-7.4,3.3-7.4,7.4c0,4.1,3.3,7.4,7.4,7.4c4.1,0,7.4-3.3,7.4-7.4   C213.1,174.4,209.7,171,205.7,171z"/><path class="st5" d="M77.8,219c-6.8,0-12.4-5.5-12.4-12.4c0-6.8,5.5-12.4,12.4-12.4c6.8,0,12.4,5.5,12.4,12.4   C90.2,213.5,84.7,219,77.8,219z M77.8,199.2c-4.1,0-7.4,3.3-7.4,7.4c0,4.1,3.3,7.4,7.4,7.4c4.1,0,7.4-3.3,7.4-7.4   C85.2,202.5,81.9,199.2,77.8,199.2z"/><path class="st5" d="M128,256c-18.5,0-35.6-14-48.2-39.3c-0.6-1.2-0.1-2.7,1.1-3.4c0,0,0,0,0.1,0c3.7-1.7,5.3-6.1,3.6-9.8   c-1.6-3.5-5.6-5.1-9.2-3.8c-1.3,0.5-2.7-0.2-3.2-1.5c0,0,0,0,0,0c-7-20.8-10.8-44.9-10.8-69.9c0-33.8,6.8-65.7,19.1-89.7   C93,14,109.9,0.5,128,0.5c18.5,0,35.7,14,48.3,39.5c0.6,1.2,0.1,2.7-1.1,3.4c0,0-0.1,0-0.1,0c-3.7,1.7-5.3,6.1-3.7,9.8   c1.6,3.5,5.6,5.2,9.3,3.9c1.3-0.5,2.7,0.2,3.2,1.5c0,0,0,0,0,0.1c7,20.7,10.7,44.8,10.7,69.6c0,33.8-6.8,65.7-19.1,89.7   C163,242.5,146.1,256,128,256z M85.3,216.5C96.9,238.8,112,251,128,251c34,0,61.7-55.1,61.7-122.7c0-23.4-3.3-46.1-9.7-65.8   c-0.6,0.1-1.2,0.1-1.8,0.1c-6.8,0-12.4-5.5-12.4-12.4c0-3.9,1.9-7.6,5-10C159.2,17.8,144,5.5,128,5.5c-34,0-61.7,55.1-61.7,122.7   c0,23.5,3.4,46.3,9.8,66.1c0.6-0.1,1.1-0.1,1.7-0.1c6.8,0,12.4,5.5,12.4,12.4C90.2,210.5,88.4,214.2,85.3,216.5z"/><path class="st5" d="M128,194.9c-33.8,0-65.7-6.8-89.7-19.1c-24.5-12.6-38-29.5-38-47.6c0-18.5,14-35.7,39.6-48.3   c1.2-0.6,2.7-0.1,3.4,1.1c0,0,0,0.1,0,0.1c1.7,3.7,6,5.4,9.8,3.7c3.5-1.6,5.2-5.7,3.9-9.3c-0.5-1.3,0.2-2.7,1.5-3.2   c0,0,0.1,0,0.1,0c20.7-7,44.8-10.7,69.6-10.7c33.8,0,65.7,6.8,89.7,19.1c24.5,12.6,38,29.5,38,47.6c0,18.6-14.2,35.9-39.9,48.5   c-1.2,0.6-2.7,0.1-3.3-1.1c0,0,0-0.1-0.1-0.1c-1.6-3.8-5.9-5.5-9.7-3.9c-3.7,1.6-5.5,5.8-4,9.5c0.5,1.3-0.1,2.7-1.4,3.2   c0,0-0.1,0-0.1,0C176.6,191.3,152.7,194.9,128,194.9z M40,85.4C17.6,97.1,5.3,112.2,5.3,128.3c0,34,55.1,61.7,122.7,61.7   c23.3,0,45.8-3.3,65.4-9.6c-0.1-0.6-0.2-1.3-0.2-1.9c0-6.8,5.5-12.4,12.4-12.4c4,0,7.8,1.9,10.1,5.2c22.6-11.6,35-26.8,35-43   c0-34-55.1-61.7-122.7-61.7c-23.4,0-46.1,3.3-65.8,9.7c0.1,0.6,0.1,1.2,0.1,1.8c0,6.8-5.5,12.4-12.4,12.4   C46,90.5,42.3,88.6,40,85.4L40,85.4z"/></g></svg>